<?xml version="1.0" encoding="iso-8859-1"?>
<!-- Generator: Adobe Illustrator 19.0.0, SVG Export Plug-In . SVG Version: 6.00 Build 0)  -->
<svg version="1.1" id="Capa_1" xmlns="http://www.w3.org/2000/svg" xmlns:xlink="http://www.w3.org/1999/xlink" x="0px" y="0px"
	 viewBox="0 0 350.613 350.613" style="enable-background:new 0 0 350.613 350.613;" xml:space="preserve">
<g>
	<g>
		<g>
			<path d="M350.306,229.906l-5.2-73.6c-4.8-42.4-39.2-74.4-80-74.4h-82.8v-16c0,0,0.4-2.4,2.4-4.8c3.2-3.2,9.2-5.2,17.6-5.2h59.6
				c10.4,0,16.8-3.6,20.4-6.8c4.8-4.4,7.2-10,7.2-16.8c0-12.4-10-24.8-26.8-24.8h-160.4c-4,0-7.2,3.2-7.2,7.2s3.2,7.2,7.2,7.2h160.8
				c8.4,0,12.8,5.2,12.8,10.8c0,1.6-0.4,4-2.8,6c-2.4,2-6,3.2-10.8,3.2h-60c-12.4,0-21.6,3.2-27.6,9.2c-6.4,6.4-6.4,14-6.4,14.8
				v15.6h-82.8c-40.4,0-74.8,32-80,74.8l-5.2,73.6c-0.4,14.4-2.4,88,12.8,104c4.8,5.6,14.4,9.2,24,9.2s18.8-3.6,26.4-10.4
				c20-17.2,37.2-43.6,53.2-81.2h116.8c15.6,37.6,33.2,64.4,53.2,81.2c8,6.8,17.2,10.4,26.4,10.4c9.2,0,18.8-3.6,24.4-9.2
				C352.706,318.306,350.706,244.706,350.306,229.906z M143.106,95.506h64v16.4c0,4.4-3.6,8.4-8.4,8.4h-47.2c-4.4,0-8.4-3.6-8.4-8.4
				V95.506z M327.506,323.906c-2,2-7.2,4.8-14,4.8c-6.4,0-12-2.4-17.2-6.8c-18.8-16.4-35.6-42.4-50.8-80.4c-1.2-2.8-3.6-4.4-6.4-4.4
				h-127.2c-2.8,0-5.6,1.6-6.4,4.4c-15.2,38-32,64-50.8,80.4c-5.2,4.4-11.2,6.8-17.2,6.8c-6.8,0-12.4-2.8-14-4.8
				c-8-7.6-10.8-54.4-9.2-93.2l5.2-73.2c4-35.2,32.4-62,66-62h43.6v16.4c0,12.4,10,22.4,22.4,22.4h47.6c12.4,0,22.4-10,22.4-22.4
				v-16.4h43.6c33.6,0,61.6,26.8,66,61.6l5.2,73.2C337.906,269.506,334.706,316.306,327.506,323.906z" stroke="black" stroke-width="7"/>
			<path d="M120.306,162.706h-21.2v-20.8c0-4-3.2-7.2-7.2-7.2h-22.8c-4,0-7.2,3.2-7.2,7.2v21.2h-20.8c-4,0-7.2,3.2-7.2,7.2v22.8
				c0.4,3.6,3.6,6.8,7.6,6.8h20.8v20.8c0,4,3.2,7.2,7.2,7.2h22.8c4,0,7.2-3.2,7.2-7.2v-20.8h20.8c4,0,7.2-3.2,7.2-7.2v-22.8
				C127.506,165.906,124.306,162.706,120.306,162.706z M113.506,185.906h-20.8c-4,0-7.2,3.2-7.2,7.2v20.8h-8.8v-20.8
				c0-4-3.2-7.2-7.2-7.2h-20.8v-8.8h20.8c4,0,7.2-3.2,7.2-7.2v-20.8h8.8v20.8c0,4,3.2,7.2,7.2,7.2h20.8V185.906z" stroke="black" stroke-width="3"/>
			<path d="M265.506,163.506c12.4,0,22.4-10,22.4-22.4c0-12.4-10-22.4-22.4-22.4c-12.4,0-22.4,10-22.4,22.4
				C242.706,153.506,253.106,163.506,265.506,163.506z M265.506,132.706c4.8,0,8.4,3.6,8.4,8.4s-3.6,8.4-8.4,8.4s-8.4-3.6-8.4-8.4
				S260.706,132.706,265.506,132.706z" stroke="black" stroke-width="3"/>
			<path d="M265.506,192.706c-12.4,0-22.4,10-22.4,22.4c0,12.4,10,22.4,22.4,22.4c12.4,0,22.4-10,22.4-22.4
				C287.906,202.706,277.906,192.706,265.506,192.706z M265.506,223.506c-4.8,0-8.4-3.6-8.4-8.4s3.6-8.4,8.4-8.4s8.4,3.6,8.4,8.4
				S269.906,223.506,265.506,223.506z" stroke="black" stroke-width="3"/>
			<path d="M302.306,155.506c-12.4,0-22.4,10-22.4,22.4c0,12.4,10,22.4,22.4,22.4c12.4,0,22.4-10,22.4-22.4
				C324.706,165.506,314.706,155.506,302.306,155.506z M302.306,186.706c-4.8,0-8.4-3.6-8.4-8.4c0-4.8,4-8.4,8.4-8.4
				c4.8,0,8.4,3.6,8.4,8.4S307.106,186.706,302.306,186.706z" stroke="black" stroke-width="3"/>
			<path d="M250.706,178.306c0-12.4-10-22.4-22.4-22.4c-12.4,0-22.4,10-22.4,22.4c0,12.4,10,22.4,22.4,22.4
				S250.706,190.706,250.706,178.306z M228.306,186.706c-4.8,0-8.4-3.6-8.4-8.4c0-4.8,4-8.4,8.4-8.4c4.8,0,8.4,3.6,8.4,8.4
				S233.106,186.706,228.306,186.706z" stroke="black" stroke-width="3"/>
		</g>
	</g>
</g>
<g>
</g>
<g>
</g>
<g>
</g>
<g>
</g>
<g>
</g>
<g>
</g>
<g>
</g>
<g>
</g>
<g>
</g>
<g>
</g>
<g>
</g>
<g>
</g>
<g>
</g>
<g>
</g>
<g>
</g>
</svg>
