<?xml version="1.0" encoding="iso-8859-1"?>
<!-- Generator: Adobe Illustrator 19.0.0, SVG Export Plug-In . SVG Version: 6.00 Build 0)  -->
<svg version="1.1" id="Capa_1" xmlns="http://www.w3.org/2000/svg" xmlns:xlink="http://www.w3.org/1999/xlink" x="0px" y="0px"
	 viewBox="0 0 512 512" style="enable-background:new 0 0 512 512;" xml:space="preserve">
<g>
	<g>
		<path d="M467,120h-76v-15C391,47.103,343.897,0,286,0h-60c-57.897,0-105,47.103-105,105v15H45c-24.813,0-45,20.187-45,45
			c0,12.57,0,288.906,0,302c0,24.813,20.187,45,45,45h422c24.813,0,45-20.187,45-45c0-13.075,0-289.399,0-302
			C512,140.187,491.813,120,467,120z M151,105c0-41.355,33.645-75,75-75h60c41.355,0,75,33.645,75,75v15h-30v-15
			c0-24.813-20.187-45-45-45h-60c-24.813,0-45,20.187-45,45v15h-30V105z M301,105v15h-90v-15c0-8.271,6.729-15,15-15h60
			C294.271,90,301,96.729,301,105z M482,467c0,8.271-6.729,15-15,15H45c-8.271,0-15-6.729-15-15v-15h452V467z M482,422H30V269.114
			c15.979,16.293,37.231,27.48,61,30.83V346c0,8.284,6.716,15,15,15h60c8.284,0,15-6.716,15-15v-45h150v45c0,8.284,6.716,15,15,15
			h60c8.284,0,15-6.716,15-15v-46.056c23.769-3.35,45.021-14.537,61-30.83V422z M151,301v30h-30v-30H151z M121,271v-30h30v30H121z
			 M391,301v30h-30v-30H391z M361,271v-30h30v30H361z M482,196c0,36.288-26.254,66.634-61,73.526V226c0-8.284-6.716-15-15-15h-60
			c-8.284,0-15,6.716-15,15v45H181v-45c0-8.284-6.716-15-15-15h-60c-8.284,0-15,6.716-15,15v43.526
			C56.254,262.634,30,232.288,30,196v-31c0-8.271,6.729-15,15-15c11.144,0,410.876,0,422,0c8.271,0,15,6.729,15,15V196z"/>
	</g>
</g>
<g>
</g>
<g>
</g>
<g>
</g>
<g>
</g>
<g>
</g>
<g>
</g>
<g>
</g>
<g>
</g>
<g>
</g>
<g>
</g>
<g>
</g>
<g>
</g>
<g>
</g>
<g>
</g>
<g>
</g>
</svg>
